<svg width="25" height="25" viewBox="0 0 25 25" fill="none" xmlns="http://www.w3.org/2000/svg">
<path d="M16.3646 13.2396C17.3858 12.4362 18.1313 11.3343 18.4971 10.0874C18.863 8.8406 18.8311 7.5107 18.406 6.28279C17.9809 5.05487 17.1836 3.99 16.1251 3.23632C15.0666 2.48263 13.7994 2.07762 12.5 2.07762C11.2005 2.07762 9.93345 2.48263 8.87493 3.23632C7.8164 3.99 7.01911 5.05487 6.59397 6.28279C6.16883 7.5107 6.13699 8.8406 6.50288 10.0874C6.86876 11.3343 7.61417 12.4362 8.63542 13.2396C6.88549 13.9406 5.35863 15.1036 4.21759 16.6041C3.07655 18.1047 2.36412 19.8868 2.15625 21.7604C2.1412 21.8972 2.15324 22.0356 2.19169 22.1678C2.23014 22.2999 2.29423 22.4232 2.38032 22.5305C2.55419 22.7474 2.80706 22.8863 3.08333 22.9167C3.35959 22.9471 3.63663 22.8665 3.85346 22.6926C4.0703 22.5188 4.20919 22.2658 4.23958 21.9896C4.46831 19.9533 5.43925 18.0727 6.9669 16.7071C8.49453 15.3415 10.4718 14.5865 12.5208 14.5865C14.5699 14.5865 16.5471 15.3415 18.0748 16.7071C19.6024 18.0727 20.5733 19.9533 20.8021 21.9896C20.8304 22.2455 20.9525 22.482 21.1449 22.6531C21.3373 22.8244 21.5863 22.9182 21.8438 22.9167H21.9583C22.2314 22.8852 22.4809 22.7472 22.6527 22.5326C22.8244 22.3179 22.9043 22.0442 22.875 21.7708C22.6661 19.8919 21.9499 18.1052 20.8029 16.6023C19.656 15.0994 18.1218 13.937 16.3646 13.2396ZM12.5 12.5C11.6759 12.5 10.8703 12.2556 10.1851 11.7978C9.49992 11.34 8.96587 10.6892 8.6505 9.92786C8.33514 9.1665 8.25262 8.32873 8.4134 7.52047C8.57417 6.71222 8.971 5.96979 9.55372 5.38707C10.1364 4.80435 10.8789 4.40751 11.6871 4.24674C12.4954 4.08597 13.3331 4.16848 14.0945 4.48384C14.8558 4.79922 15.5066 5.33327 15.9645 6.01847C16.4223 6.70367 16.6667 7.50926 16.6667 8.33334C16.6667 9.43841 16.2277 10.4982 15.4463 11.2796C14.6649 12.061 13.6051 12.5 12.5 12.5Z" fill="#573F8A"/>
</svg>
