<svg width="15" height="14" viewBox="0 0 15 14" fill="none" xmlns="http://www.w3.org/2000/svg">
<path d="M9.81875 7.41417C10.4315 6.96425 10.8788 6.3472 11.0983 5.64897C11.3178 4.95074 11.2987 4.20599 11.0436 3.51836C10.7886 2.83073 10.3102 2.2344 9.67506 1.81234C9.03994 1.39027 8.27963 1.16347 7.5 1.16347C6.72031 1.16347 5.96007 1.39027 5.32496 1.81234C4.68984 2.2344 4.21146 2.83073 3.95638 3.51836C3.7013 4.20599 3.68219 4.95074 3.90173 5.64897C4.12126 6.3472 4.5685 6.96425 5.18125 7.41417C4.13129 7.80675 3.21518 8.45799 2.53056 9.29828C1.84593 10.1386 1.41847 11.1366 1.29375 12.1858C1.28472 12.2624 1.29194 12.34 1.31501 12.414C1.33808 12.4879 1.37654 12.557 1.42819 12.6171C1.53251 12.7385 1.68424 12.8163 1.85 12.8333C2.01576 12.8504 2.18198 12.8052 2.31208 12.7079C2.44218 12.6105 2.52551 12.4689 2.54375 12.3142C2.68099 11.1739 3.26355 10.1207 4.18014 9.35597C5.09672 8.59122 6.28306 8.16842 7.5125 8.16842C8.74194 8.16842 9.92825 8.59122 10.8449 9.35597C11.7614 10.1207 12.344 11.1739 12.4813 12.3142C12.4983 12.4575 12.5715 12.5899 12.6869 12.6858C12.8024 12.7817 12.9518 12.8342 13.1063 12.8333H13.175C13.3388 12.8157 13.4886 12.7384 13.5916 12.6183C13.6946 12.498 13.7426 12.3447 13.725 12.1917C13.5997 11.1395 13.1699 10.1389 12.4818 9.29729C11.7936 8.45565 10.8731 7.80471 9.81875 7.41417ZM7.5 7C7.00556 7 6.52219 6.86315 6.11108 6.60678C5.69995 6.3504 5.37952 5.98594 5.1903 5.5596C5.00108 5.13324 4.95157 4.66409 5.04804 4.21146C5.1445 3.75884 5.3826 3.34308 5.73223 3.01676C6.08186 2.69044 6.52731 2.4682 7.01225 2.37817C7.49725 2.28814 7.99988 2.33435 8.45669 2.51095C8.9135 2.68756 9.30394 2.98663 9.57869 3.37034C9.85338 3.75406 10 4.20518 10 4.66667C10 5.28551 9.73663 5.87901 9.26775 6.31657C8.79894 6.75419 8.16306 7 7.5 7Z" fill="#573F8A"/>
</svg>
