<svg width="25" height="25" viewBox="0 0 25 25" fill="none" xmlns="http://www.w3.org/2000/svg">
<path fill-rule="evenodd" clip-rule="evenodd" d="M2.08334 6.24999C2.08334 5.6747 2.54972 5.20833 3.12501 5.20833H21.875C22.4503 5.20833 22.9167 5.6747 22.9167 6.24999C22.9167 6.82529 22.4503 7.29166 21.875 7.29166H3.12501C2.54972 7.29166 2.08334 6.82529 2.08334 6.24999ZM2.08334 12.5C2.08334 11.9247 2.54972 11.4583 3.12501 11.4583H21.875C22.4503 11.4583 22.9167 11.9247 22.9167 12.5C22.9167 13.0753 22.4503 13.5417 21.875 13.5417H3.12501C2.54972 13.5417 2.08334 13.0753 2.08334 12.5ZM3.12501 17.7083C2.54972 17.7083 2.08334 18.1747 2.08334 18.75C2.08334 19.3253 2.54972 19.7917 3.12501 19.7917H21.875C22.4503 19.7917 22.9167 19.3253 22.9167 18.75C22.9167 18.1747 22.4503 17.7083 21.875 17.7083H3.12501Z" fill="#573F8A"/>
</svg>
