<svg width="15" height="14" viewBox="0 0 15 14" fill="none" xmlns="http://www.w3.org/2000/svg">
<path fill-rule="evenodd" clip-rule="evenodd" d="M1.25 3.50001C1.25 3.17784 1.52983 2.91667 1.875 2.91667H13.125C13.4702 2.91667 13.75 3.17784 13.75 3.50001C13.75 3.82217 13.4702 4.08334 13.125 4.08334H1.875C1.52983 4.08334 1.25 3.82217 1.25 3.50001ZM1.25 7C1.25 6.67783 1.52983 6.41667 1.875 6.41667H13.125C13.4702 6.41667 13.75 6.67783 13.75 7C13.75 7.32218 13.4702 7.58334 13.125 7.58334H1.875C1.52983 7.58334 1.25 7.32218 1.25 7ZM1.875 9.91667C1.52983 9.91667 1.25 10.1778 1.25 10.5C1.25 10.8222 1.52983 11.0833 1.875 11.0833H13.125C13.4702 11.0833 13.75 10.8222 13.75 10.5C13.75 10.1778 13.4702 9.91667 13.125 9.91667H1.875Z" fill="#573F8A"/>
</svg>
