<svg width="13" height="12" viewBox="0 0 13 12" fill="none" xmlns="http://www.w3.org/2000/svg">
<path d="M12.3318 10.6814L10.0131 8.53469C10.9131 7.48726 11.349 6.15778 11.2311 4.81962C11.1131 3.48145 10.4504 2.23631 9.379 1.34023C8.30769 0.444151 6.90919 -0.0347603 5.47113 0.00196638C4.03308 0.0386931 2.66476 0.588269 1.64753 1.53769C0.630288 2.48711 0.0414568 3.76421 0.00210684 5.10638C-0.0372432 6.44858 0.475876 7.75384 1.43596 8.75373C2.39605 9.75368 3.73013 10.3723 5.16388 10.4823C6.59763 10.5924 8.02206 10.1856 9.14431 9.34553L11.4443 11.4922C11.5024 11.5469 11.5716 11.5903 11.6477 11.6199C11.7239 11.6495 11.8056 11.6647 11.8881 11.6647C11.9706 11.6647 12.0522 11.6495 12.1284 11.6199C12.2046 11.5903 12.2737 11.5469 12.3318 11.4922C12.4444 11.3834 12.5074 11.238 12.5074 11.0868C12.5074 10.9355 12.4444 10.7902 12.3318 10.6814ZM5.63806 9.34553C4.77277 9.34553 3.92691 9.10607 3.20744 8.65737C2.48798 8.20867 1.92722 7.57097 1.59609 6.82483C1.26496 6.07868 1.17831 5.25764 1.34713 4.46557C1.51594 3.67348 1.93261 2.9459 2.54447 2.37484C3.15633 1.80377 3.93588 1.41488 4.78454 1.25732C5.63319 1.09976 6.51288 1.18063 7.31231 1.48968C8.11175 1.79874 8.795 2.32211 9.27575 2.99361C9.7565 3.66511 10.0131 4.45459 10.0131 5.26219C10.0131 6.34515 9.55213 7.38378 8.73163 8.14952C7.91119 8.91532 6.79838 9.34553 5.63806 9.34553Z" fill="#573F8A"/>
</svg>
